<svg width="85" height="28" viewBox="0 0 85 28" fill="none" xmlns="http://www.w3.org/2000/svg">
<path d="M17.9272 27L8.24316 14.436L10.4032 13.14L20.9872 27H17.9272ZM0.683158 27V1.8H3.27516V27H0.683158ZM2.48316 15.444V13.104H10.3672V15.444H2.48316ZM10.6192 14.688L8.17116 14.256L17.5672 1.8H20.4472L10.6192 14.688ZM40.5624 25.272C37.5624 25.272 34.9944 24.852 32.8584 24.012C30.7224 23.148 29.0784 21.9 27.9264 20.268C26.7744 18.636 26.1984 16.668 26.1984 14.364C26.1984 12.06 26.7744 10.104 27.9264 8.496C29.0784 6.864 30.7224 5.616 32.8584 4.752C34.9944 3.888 37.5624 3.456 40.5624 3.456C40.5864 3.456 40.6464 3.456 40.7424 3.456C40.8384 3.456 40.9344 3.456 41.0304 3.456C41.1264 3.456 41.1864 3.456 41.2104 3.456C44.2344 3.456 46.8144 3.888 48.9504 4.752C51.0864 5.616 52.7304 6.864 53.8824 8.496C55.0344 10.104 55.6104 12.06 55.6104 14.364C55.6104 16.668 55.0344 18.636 53.8824 20.268C52.7544 21.9 51.1224 23.148 48.9864 24.012C46.8504 24.852 44.2944 25.272 41.3184 25.272C41.2704 25.272 41.1864 25.272 41.0664 25.272C40.9704 25.272 40.8624 25.272 40.7424 25.272C40.6464 25.272 40.5864 25.272 40.5624 25.272ZM40.8504 23.184C40.8984 23.184 40.9464 23.184 40.9944 23.184C41.0424 23.184 41.0784 23.184 41.1024 23.184C43.6224 23.16 45.7704 22.812 47.5464 22.14C49.3464 21.444 50.7144 20.448 51.6504 19.152C52.5864 17.832 53.0544 16.236 53.0544 14.364C53.0544 12.468 52.5744 10.872 51.6144 9.576C50.6784 8.28 49.3224 7.296 47.5464 6.624C45.7944 5.928 43.6704 5.58 41.1744 5.58C41.1504 5.58 41.1024 5.58 41.0304 5.58C40.9584 5.58 40.8984 5.58 40.8504 5.58C38.3064 5.58 36.1344 5.916 34.3344 6.588C32.5344 7.26 31.1544 8.256 30.1944 9.576C29.2344 10.872 28.7544 12.468 28.7544 14.364C28.7544 16.284 29.2344 17.904 30.1944 19.224C31.1784 20.52 32.5704 21.504 34.3704 22.176C36.1944 22.848 38.3544 23.184 40.8504 23.184ZM39.6624 27.864V0.935999H42.1464V27.864H39.6624ZM63.9121 24.516C65.1361 24.996 66.2881 25.116 67.3681 24.876C68.4481 24.612 69.4441 23.76 70.3561 22.32L71.5801 20.376L71.8321 20.052L81.4801 1.8H84.1441L72.6961 22.896C71.9281 24.36 71.0161 25.452 69.9601 26.172C68.9281 26.892 67.8241 27.276 66.6481 27.324C65.4961 27.372 64.3321 27.156 63.1561 26.676L63.9121 24.516ZM71.7601 22.464L60.8521 1.8H63.6961L73.2001 20.268L71.7601 22.464Z" fill="white"/>
</svg>
